<svg width="20" height="20" viewBox="0 0 20 20" fill="none" xmlns="http://www.w3.org/2000/svg">
<path d="M14.1666 7.64162C14.0105 7.48641 13.7993 7.39929 13.5791 7.39929C13.359 7.39929 13.1478 7.48641 12.9916 7.64162L9.99998 10.5916L7.04998 7.64162C6.89384 7.48641 6.68263 7.39929 6.46248 7.39929C6.24232 7.39929 6.03111 7.48641 5.87498 7.64162C5.79687 7.71909 5.73488 7.81126 5.69257 7.91281C5.65026 8.01435 5.62848 8.12328 5.62848 8.23329C5.62848 8.3433 5.65026 8.45222 5.69257 8.55377C5.73488 8.65532 5.79687 8.74748 5.87498 8.82495L9.40831 12.3583C9.48578 12.4364 9.57795 12.4984 9.6795 12.5407C9.78105 12.583 9.88997 12.6048 9.99998 12.6048C10.11 12.6048 10.2189 12.583 10.3205 12.5407C10.422 12.4984 10.5142 12.4364 10.5916 12.3583L14.1666 8.82495C14.2448 8.74748 14.3067 8.65532 14.3491 8.55377C14.3914 8.45222 14.4131 8.3433 14.4131 8.23329C14.4131 8.12328 14.3914 8.01435 14.3491 7.91281C14.3067 7.81126 14.2448 7.71909 14.1666 7.64162Z" fill="#71839B"/>
</svg>
